<svg width="361" height="500" viewBox="0 0 361 500" fill="none" xmlns="http://www.w3.org/2000/svg">
<path d="M201.8 237H333.15C337.341 237 341.354 235.525 344.983 233.445C348.613 231.365 352.355 228.753 354.45 225.149C356.545 221.547 358.002 217.458 358 213.299C357.998 209.139 356.548 205.052 354.45 201.451L265.7 48.5852C263.605 44.9824 261.046 42.3698 257.417 40.2897C253.787 38.2103 248.591 36.7347 244.4 36.7347C240.21 36.7347 236.196 38.2103 232.567 40.2897C228.937 42.3698 226.378 44.9824 224.283 48.5852L201.8 87.6902L156.833 11.8472C154.737 8.24525 152.18 4.44962 148.55 2.37028C144.92 0.290104 140.908 0 136.717 0C132.526 0 128.513 0.290104 124.883 2.37028C121.254 4.44962 117.513 8.24525 115.417 11.8472L5.3667 201.451C3.2686 205.052 3.00185 209.139 3.00001 213.299C2.99817 217.458 3.27178 221.546 5.3667 225.149C7.46162 228.752 11.2034 231.365 14.8333 233.445C18.4633 235.525 22.475 237 26.6667 237H109.5C142.322 237 166.211 222.256 182.867 194.34L223.1 124.425L244.4 87.6902L309.483 199.08H223.1L201.8 237ZM108.317 199.08H50.3331L136.717 49.7699L180.5 124.425L151.498 175.053C140.438 193.166 127.827 199.08 108.317 199.08Z" fill="#00DC82"/>
<path d="M182.791 485.776C182.791 464.45 182.79 443.623 182.792 422.796C182.793 416.292 182.799 416.289 189.513 416.289C213.839 416.288 238.165 416.289 262.491 416.289C264.281 416.289 266.071 416.289 268.173 416.289C268.173 385.509 268.173 355.276 268.173 324.276C266.366 324.276 264.602 324.276 262.837 324.276C237.845 324.276 212.852 324.222 187.86 324.336C184.323 324.352 182.725 323.419 182.741 319.614C182.846 293.789 182.807 267.963 182.828 242.138C182.828 241.84 183.006 241.542 183.174 241.016C242.177 241.016 301.236 241.016 360.544 241.016C360.544 327.134 360.544 413.187 360.544 499.512C301.48 499.512 242.421 499.512 182.791 499.512C182.791 495.144 182.791 490.709 182.791 485.776Z" fill="black"/>
<path d="M86.7918 321.438C86.7763 325.855 89.8272 324.21 91.5191 324.216C120.014 324.318 148.51 324.289 177.006 324.289C178.829 324.289 180.651 324.289 182.778 324.289C182.778 354.857 182.778 385.225 182.778 416.131C151.029 416.131 119.142 416.131 86.8372 416.131C86.8372 444.233 86.8372 471.801 86.8372 499.574C57.6797 499.574 28.9443 499.574 0 499.574C0 413.343 0 327.281 0 241C28.8842 241 57.6196 241 86.7914 241C86.7914 267.749 86.7914 294.36 86.7918 321.438Z" fill="black"/>
</svg>